<svg id="Layer_1" data-name="Layer 1" xmlns="http://www.w3.org/2000/svg" viewBox="0 0 267.96 130.85"><defs><style>.cls-1{fill:#003f64;}.cls-2{fill:#00918f;}</style></defs><title>icos logo</title><path class="cls-1" d="M42.36,69.31Q42,60.9,41.67,52.14c1.14.16,2.25.31,3.31.43a28.25,28.25,0,0,0,3.18.18,28.56,28.56,0,0,0,3.19-.18c1-.12,2.16-.27,3.29-.43C54.4,58,54.16,63.7,54,69.31s-.32,11.34-.32,17.17v22.79q0,8.78.32,17.24c.2,5.66.44,11.23.68,16.7-2-.13-4.19-.19-6.48-.19s-4.46.06-6.49.19q.38-8.21.69-16.7t.32-17.24V86.48Q42.68,77.74,42.36,69.31Z" transform="translate(-41.67 -50.52)"/><path class="cls-2" d="M150.78,96.51s13.69,1.4,21.08-15.94c6.3-14.79,9.43-28.09,25.55-28.76,0,0-23.26-3.52-36.89,17.25C150,85.14,150.78,96.51,150.78,96.51Z" transform="translate(-41.67 -50.52)"/><path class="cls-2" d="M243,96.51S229.34,97.91,222,80.57c-6.31-14.79-9.43-28.09-25.56-28.76,0,0,23.26-3.52,36.89,17.25C243.85,85.14,243,96.51,243,96.51Z" transform="translate(-41.67 -50.52)"/><path class="cls-1" d="M137.45,140.2a35.93,35.93,0,0,1-6.24,2.26c-2.43.66-5.15,1.25-8.16,1.79a55.05,55.05,0,0,1-9.41.79,60.56,60.56,0,0,1-19.37-3A40.78,40.78,0,0,1,79,133a43,43,0,0,1-10.08-14.92A52.52,52.52,0,0,1,65.24,98a52.6,52.6,0,0,1,3.63-20.09A42.09,42.09,0,0,1,79.09,63a43.91,43.91,0,0,1,15.72-9.27A60.75,60.75,0,0,1,115,50.52a67.24,67.24,0,0,1,16,1.78,74.32,74.32,0,0,1,12.8,4.28,17.73,17.73,0,0,0-1.72,5q-.67,3.2-1.06,5.31l-.8.27a28.23,28.23,0,0,0-3.72-3.6,41.88,41.88,0,0,0-5.57-3.84,35.37,35.37,0,0,0-7.15-3.11A28.68,28.68,0,0,0,115,55.39a40.86,40.86,0,0,0-14.52,2.52,30.86,30.86,0,0,0-11.67,7.76A36.11,36.11,0,0,0,81,78.94a58.13,58.13,0,0,0-2.79,19A58.09,58.09,0,0,0,81,117a36,36,0,0,0,7.76,13.27,30.88,30.88,0,0,0,11.67,7.77A40.86,40.86,0,0,0,115,140.58a31,31,0,0,0,8.83-1.2,48.15,48.15,0,0,0,7.42-2.86,43.74,43.74,0,0,0,6.11-3.6c1.81-1.28,3.33-2.41,4.58-3.38l.52.52-1.19,7.82A17.16,17.16,0,0,1,137.45,140.2Z" transform="translate(-41.67 -50.52)"/><path class="cls-1" d="M262.16,130.82a21.59,21.59,0,0,0,4.37,4.44,23,23,0,0,0,6.05,3.25,22.17,22.17,0,0,0,7.72,1.26,19.72,19.72,0,0,0,7.89-1.52,18.25,18.25,0,0,0,6-4.11,18,18,0,0,0,3.78-6.09,20.85,20.85,0,0,0,1.34-7.48c0-4.06-1.05-7.28-3.12-9.67a25.81,25.81,0,0,0-7.77-6,91.59,91.59,0,0,0-10-4.38,51.94,51.94,0,0,1-10-5A26.51,26.51,0,0,1,260.63,88c-2.09-3.09-3.12-7.24-3.12-12.46a24.84,24.84,0,0,1,2-10.12,22.17,22.17,0,0,1,5.76-7.88,27.28,27.28,0,0,1,9.09-5.17,35.89,35.89,0,0,1,11.94-1.85,35.48,35.48,0,0,1,11,1.52,27.33,27.33,0,0,1,8.61,4.68,28.6,28.6,0,0,0-2,4.78,65,65,0,0,0-1.59,6.36h-1.6a33.14,33.14,0,0,0-1.78-4,15.34,15.34,0,0,0-3.06-4.05,16.9,16.9,0,0,0-4.57-3.11A14.53,14.53,0,0,0,285,55.39a19.06,19.06,0,0,0-6.83,1.19A16.15,16.15,0,0,0,272.7,60a14.51,14.51,0,0,0-3.59,5.23,17.25,17.25,0,0,0-1.25,6.64c0,4.15,1,7.42,3.1,9.81a26.55,26.55,0,0,0,7.77,6,75.26,75.26,0,0,0,10,4.38,56.07,56.07,0,0,1,10,4.71,25.39,25.39,0,0,1,7.75,7.16c2.08,2.92,3.12,6.8,3.12,11.67a30.5,30.5,0,0,1-2.19,11.55,26.93,26.93,0,0,1-6.37,9.47,28.38,28.38,0,0,1-10.23,6.24A40.34,40.34,0,0,1,277.1,145q-8.24,0-13.35-2.23a36.55,36.55,0,0,1-8.56-5,31.79,31.79,0,0,0,1.65-5.5c.31-1.63.59-3.75.87-6.31h1.6A25.72,25.72,0,0,0,262.16,130.82Z" transform="translate(-41.67 -50.52)"/><path class="cls-2" d="M150.78,97.52s13.69-1.39,21.08,16c6.3,14.77,9.43,28.07,25.55,28.75,0,0-23.26,3.52-36.89-17.26C150,108.9,150.78,97.52,150.78,97.52Z" transform="translate(-41.67 -50.52)"/><path class="cls-2" d="M243,97.52s-13.69-1.39-21.08,16c-6.31,14.77-9.43,28.07-25.56,28.75,0,0,23.26,3.52,36.89-17.26C243.85,108.9,243,97.52,243,97.52Z" transform="translate(-41.67 -50.52)"/><path class="cls-1" d="M157,178.69a8.29,8.29,0,0,0-.27,1.37,14.53,14.53,0,0,1-6.56,1.31,14.85,14.85,0,0,1-5-.78,10.7,10.7,0,0,1-3.74-2.23,9.61,9.61,0,0,1-2.33-3.38,11,11,0,0,1-.8-4.25,13.78,13.78,0,0,1,1.05-5.68,10.39,10.39,0,0,1,2.79-3.8,11.28,11.28,0,0,1,4.06-2.13,17.35,17.35,0,0,1,4.86-.68,12.31,12.31,0,0,1,1.77.13c.62.09,1.22.2,1.81.33s1.13.32,1.65.5a8.93,8.93,0,0,1,1.34.62,10,10,0,0,0-.5,1.62,13.27,13.27,0,0,0-.24,1.66h-.46a7.59,7.59,0,0,0-2.5-2.2,6.6,6.6,0,0,0-5.61-.09,6.85,6.85,0,0,0-2.37,1.78,9.18,9.18,0,0,0-1.72,3,13.2,13.2,0,0,0-.65,4.42,11.61,11.61,0,0,0,.67,4.24,8.66,8.66,0,0,0,1.75,2.86,6.42,6.42,0,0,0,2.45,1.61,7.55,7.55,0,0,0,2.75.53,7.21,7.21,0,0,0,1.57-.18,11.51,11.51,0,0,0,1.58-.49,8.05,8.05,0,0,0,1.46-.75,6.64,6.64,0,0,0,1.21-1l.42.25A11.69,11.69,0,0,0,157,178.69Z" transform="translate(-41.67 -50.52)"/><path class="cls-1" d="M186.24,180.94c-.52,0-1-.05-1.47-.05H182c-.46,0-.91,0-1.36.05-.35-1-.71-2.11-1.07-3.2s-.76-2.19-1.15-3.28l-2.07-.05h-3.73l-1.67.05c-.43,1.09-.82,2.18-1.18,3.28s-.7,2.16-1,3.2a6.76,6.76,0,0,0-.76-.05h-1.53c-.25,0-.54,0-.83.05q.38-.83,1-2.31c.43-1,.9-2.09,1.42-3.33s1.06-2.58,1.66-4,1.18-2.88,1.77-4.33,1.17-2.89,1.73-4.31,1.09-2.73,1.56-4l.61.11a4,4,0,0,0,.61.05,4.1,4.1,0,0,0,.62-.05l.61-.11q1,2.73,2.2,5.85c.78,2.08,1.56,4.12,2.37,6.13s1.56,3.91,2.3,5.71S185.62,179.71,186.24,180.94Zm-11.39-16c-.56,1.29-1.08,2.57-1.57,3.81s-1,2.54-1.46,3.85h5.89c-.47-1.31-.94-2.59-1.39-3.85S175.37,166.19,174.85,164.9Z" transform="translate(-41.67 -50.52)"/><path class="cls-1" d="M197.24,163c-.05-1.38-.12-2.77-.19-4.16.36,0,.75.08,1.19.11s.9.05,1.44.05c.76,0,1.53,0,2.34-.08s1.57-.08,2.36-.08a14.5,14.5,0,0,1,3.57.34,4.9,4.9,0,0,1,2,1,5.28,5.28,0,0,1,1.52,1.87,5.69,5.69,0,0,1,.48,2.48,7.38,7.38,0,0,1-.61,3.15,5.48,5.48,0,0,1-1.71,2.14A7.7,7.7,0,0,1,207,171a13.32,13.32,0,0,1-3.32.39h-1.64c0,1.6,0,3.21,0,4.8s.11,3.18.21,4.73c-.36,0-.76-.05-1.18-.05h-2.89c-.44,0-.83,0-1.19.05.07-1.32.14-2.67.19-4.05s.06-3,.06-4.75v-4.37C197.3,166,197.28,164.41,197.24,163Zm9.37-.05a3.67,3.67,0,0,0-.74-1.33,2.7,2.7,0,0,0-1.1-.72,3.55,3.55,0,0,0-1.29-.23h-1.07a.82.82,0,0,0-.28,0c0,1.54,0,3.05,0,4.54s0,3,0,4.49a8.71,8.71,0,0,0,1.66-.16,4.2,4.2,0,0,0,1.56-.66,3.54,3.54,0,0,0,1.15-1.43,5.58,5.58,0,0,0,.45-2.48A6.82,6.82,0,0,0,206.61,163Z" transform="translate(-41.67 -50.52)"/><path class="cls-1" d="M223.57,163c0-1.38-.1-2.77-.19-4.16l1.19.11c.44,0,.91.05,1.45.05s1,0,1.45-.05.82-.07,1.18-.11c-.09,1.39-.15,2.78-.19,4.16s-.06,3-.06,4.75v4.37c0,1.78,0,3.36.06,4.75s.1,2.73.19,4.05c-.36,0-.75-.05-1.18-.05h-2.9c-.42,0-.82,0-1.19.05.09-1.32.15-2.67.19-4.05s.08-3,.08-4.75v-4.37C223.65,166,223.62,164.41,223.57,163Z" transform="translate(-41.67 -50.52)"/><path class="cls-1" d="M246.05,162.4c0-.52-.05-.89-.09-1.13l-1.19,0-1.51.08-1.64.13c-.55.06-1.08.11-1.54.18,0-.23.08-.48.1-.71a4.12,4.12,0,0,0,0-.7,4.17,4.17,0,0,0,0-.71c0-.24-.06-.48-.1-.71l2,.07,1.81,0,2,0c.72,0,1.58,0,2.6,0s1.87,0,2.58,0l2,0,1.74,0,1.85-.07c0,.23-.07.47-.11.71a5,5,0,0,0,0,1.41c0,.23.07.48.11.71-.43-.07-.91-.12-1.43-.18l-1.61-.13-1.49-.08-1.19,0a2.52,2.52,0,0,0,0,.46,4.44,4.44,0,0,0,0,.67v9.74c0,1.78,0,3.36.07,4.75s.1,2.73.19,4.05c-.36,0-.76-.05-1.19-.05H247c-.44,0-.82,0-1.2.05.09-1.32.16-2.67.2-4.05s.07-3,.07-4.75v-8C246.06,163.47,246.05,162.91,246.05,162.4Z" transform="translate(-41.67 -50.52)"/><path class="cls-1" d="M283.94,180.94c-.52,0-1-.05-1.45-.05h-2.74c-.48,0-.91,0-1.37.05-.35-1-.7-2.11-1.07-3.2s-.74-2.19-1.15-3.28l-2.06-.05h-3.74l-1.66.05c-.43,1.09-.84,2.18-1.18,3.28s-.71,2.16-1,3.2a6.44,6.44,0,0,0-.75-.05h-1.53c-.26,0-.54,0-.84.05.26-.55.6-1.32,1-2.31s.9-2.09,1.41-3.33l1.66-4c.59-1.42,1.18-2.88,1.77-4.33s1.17-2.89,1.73-4.31,1.08-2.73,1.57-4l.6.11a4.1,4.1,0,0,0,.62.05,3.64,3.64,0,0,0,.6-.05l.62-.11c.69,1.82,1.41,3.77,2.21,5.85s1.56,4.12,2.36,6.13,1.57,3.91,2.31,5.71S283.32,179.71,283.94,180.94Zm-11.38-16c-.55,1.29-1.09,2.57-1.58,3.81s-1,2.54-1.45,3.85h5.89c-.47-1.31-.95-2.59-1.4-3.85S273.06,166.19,272.56,164.9Z" transform="translate(-41.67 -50.52)"/><path class="cls-1" d="M295.23,163c-.05-1.38-.1-2.77-.19-4.16l1.18.11c.44,0,.91.05,1.45.05s1,0,1.45-.05l1.2-.11c-.09,1.39-.16,2.78-.2,4.16s-.07,3-.07,4.75v4.37c0,1.22,0,2.4,0,3.54s0,2.12.05,2.95c1.23,0,2.44,0,3.66-.09s2.46-.17,3.7-.32a5.76,5.76,0,0,0-.09.64,5.86,5.86,0,0,0,0,.81,5.61,5.61,0,0,0,0,.8,1.78,1.78,0,0,0,.09.47c-.58,0-1.28,0-2.13,0s-2,0-3.49,0h-5.1c-.49,0-.85,0-1.09,0s-.46,0-.63,0c.09-1.32.14-2.67.19-4.05s0-3,0-4.75v-4.37C295.28,166,295.27,164.41,295.23,163Z" transform="translate(-41.67 -50.52)"/></svg>